<mxfile host="app.diagrams.net" modified="2023-09-08T04:07:54.686Z" agent="Mozilla/5.0 (Windows NT 10.0; Win64; x64) AppleWebKit/537.36 (KHTML, like Gecko) Chrome/116.0.0.0 Safari/537.36" etag="xmEsfun0F41N56UWTNdB" version="21.6.8" type="github">
  <diagram id="C5RBs43oDa-KdzZeNtuy" name="Page-1">
    <mxGraphModel dx="2087" dy="885" grid="0" gridSize="10" guides="1" tooltips="1" connect="1" arrows="1" fold="1" page="0" pageScale="1" pageWidth="827" pageHeight="1169" math="0" shadow="0">
      <root>
        <mxCell id="WIyWlLk6GJQsqaUBKTNV-0" />
        <mxCell id="WIyWlLk6GJQsqaUBKTNV-1" parent="WIyWlLk6GJQsqaUBKTNV-0" />
        <mxCell id="yXGT23yazqKVYROXxRZH-7" value="" style="edgeStyle=orthogonalEdgeStyle;rounded=0;orthogonalLoop=1;jettySize=auto;html=1;" parent="WIyWlLk6GJQsqaUBKTNV-1" source="WIyWlLk6GJQsqaUBKTNV-6" target="yXGT23yazqKVYROXxRZH-6" edge="1">
          <mxGeometry relative="1" as="geometry" />
        </mxCell>
        <mxCell id="WIyWlLk6GJQsqaUBKTNV-6" value="로그인&lt;br&gt;( Y / N )" style="rhombus;whiteSpace=wrap;html=1;shadow=0;fontFamily=Helvetica;fontSize=12;align=center;strokeWidth=1;spacing=6;spacingTop=-4;labelBackgroundColor=none;rounded=0;fillColor=#09555B;strokeColor=#BAC8D3;fontColor=#EEEEEE;" parent="WIyWlLk6GJQsqaUBKTNV-1" vertex="1">
          <mxGeometry x="280" y="270" width="100" height="70" as="geometry" />
        </mxCell>
        <mxCell id="yXGT23yazqKVYROXxRZH-13" value="" style="edgeStyle=orthogonalEdgeStyle;rounded=0;orthogonalLoop=1;jettySize=auto;html=1;" parent="WIyWlLk6GJQsqaUBKTNV-1" source="0bC-GasRbppWAcGdlRrs-1" target="yXGT23yazqKVYROXxRZH-12" edge="1">
          <mxGeometry relative="1" as="geometry" />
        </mxCell>
        <mxCell id="0bC-GasRbppWAcGdlRrs-1" value="시작&lt;br&gt;(메인페이지)" style="strokeWidth=2;html=1;shape=mxgraph.flowchart.terminator;whiteSpace=wrap;strokeColor=#BAC8D3;fontColor=#EEEEEE;fillColor=#09555B;" parent="WIyWlLk6GJQsqaUBKTNV-1" vertex="1">
          <mxGeometry x="260" y="30" width="140" height="50" as="geometry" />
        </mxCell>
        <mxCell id="0bC-GasRbppWAcGdlRrs-2" value="출력" style="shape=document;whiteSpace=wrap;html=1;boundedLbl=1;strokeColor=#BAC8D3;fontColor=#EEEEEE;fillColor=#09555B;" parent="WIyWlLk6GJQsqaUBKTNV-1" vertex="1">
          <mxGeometry x="480" y="30" width="120" height="60" as="geometry" />
        </mxCell>
        <mxCell id="j07MkLIGBB6SY7WjXgDA-7" value="" style="edgeStyle=orthogonalEdgeStyle;rounded=0;orthogonalLoop=1;jettySize=auto;html=1;" parent="WIyWlLk6GJQsqaUBKTNV-1" source="yXGT23yazqKVYROXxRZH-1" target="j07MkLIGBB6SY7WjXgDA-5" edge="1">
          <mxGeometry relative="1" as="geometry" />
        </mxCell>
        <mxCell id="yXGT23yazqKVYROXxRZH-1" value="카테고리별&lt;br&gt;와인 출력" style="shape=document;whiteSpace=wrap;html=1;boundedLbl=1;strokeColor=#BAC8D3;fontColor=#EEEEEE;fillColor=#09555B;" parent="WIyWlLk6GJQsqaUBKTNV-1" vertex="1">
          <mxGeometry x="-130" y="410" width="120" height="60" as="geometry" />
        </mxCell>
        <mxCell id="yXGT23yazqKVYROXxRZH-16" value="" style="edgeStyle=orthogonalEdgeStyle;rounded=0;orthogonalLoop=1;jettySize=auto;html=1;" parent="WIyWlLk6GJQsqaUBKTNV-1" source="yXGT23yazqKVYROXxRZH-6" target="yXGT23yazqKVYROXxRZH-15" edge="1">
          <mxGeometry relative="1" as="geometry" />
        </mxCell>
        <mxCell id="yXGT23yazqKVYROXxRZH-6" value="&lt;p style=&quot;line-height: 100%;&quot;&gt;&lt;font style=&quot;font-size: 10px;&quot;&gt;카테고리&lt;br&gt;와인 선택&lt;br&gt;( Y / N )&lt;/font&gt;&lt;/p&gt;" style="rhombus;whiteSpace=wrap;html=1;shadow=0;fontFamily=Helvetica;fontSize=12;align=center;strokeWidth=1;spacing=6;spacingTop=-4;labelBackgroundColor=none;rounded=0;fillColor=#09555B;strokeColor=#BAC8D3;fontColor=#EEEEEE;" parent="WIyWlLk6GJQsqaUBKTNV-1" vertex="1">
          <mxGeometry x="460" y="270" width="100" height="70" as="geometry" />
        </mxCell>
        <mxCell id="yXGT23yazqKVYROXxRZH-8" value="No" style="text;html=1;strokeColor=none;fillColor=none;align=center;verticalAlign=middle;whiteSpace=wrap;rounded=0;" parent="WIyWlLk6GJQsqaUBKTNV-1" vertex="1">
          <mxGeometry x="384" y="280" width="60" height="30" as="geometry" />
        </mxCell>
        <mxCell id="yXGT23yazqKVYROXxRZH-10" value="Yes" style="text;html=1;strokeColor=none;fillColor=none;align=center;verticalAlign=middle;whiteSpace=wrap;rounded=0;" parent="WIyWlLk6GJQsqaUBKTNV-1" vertex="1">
          <mxGeometry x="280" y="330" width="60" height="30" as="geometry" />
        </mxCell>
        <mxCell id="yXGT23yazqKVYROXxRZH-14" value="" style="edgeStyle=orthogonalEdgeStyle;rounded=0;orthogonalLoop=1;jettySize=auto;html=1;" parent="WIyWlLk6GJQsqaUBKTNV-1" source="yXGT23yazqKVYROXxRZH-12" target="WIyWlLk6GJQsqaUBKTNV-6" edge="1">
          <mxGeometry relative="1" as="geometry" />
        </mxCell>
        <mxCell id="yXGT23yazqKVYROXxRZH-12" value="메인화면&lt;br&gt;출력" style="shape=document;whiteSpace=wrap;html=1;boundedLbl=1;strokeColor=#BAC8D3;fontColor=#EEEEEE;fillColor=#09555B;" parent="WIyWlLk6GJQsqaUBKTNV-1" vertex="1">
          <mxGeometry x="270" y="150" width="120" height="60" as="geometry" />
        </mxCell>
        <mxCell id="yXGT23yazqKVYROXxRZH-15" value="&lt;p style=&quot;line-height: 100%; font-size: 11px;&quot;&gt;카테고리별&lt;br&gt;와인 출력&lt;br&gt;( ex )category_id = 1)&lt;br&gt;&lt;/p&gt;" style="shape=document;whiteSpace=wrap;html=1;boundedLbl=1;fillColor=#09555B;strokeColor=#BAC8D3;fontColor=#EEEEEE;shadow=0;strokeWidth=1;spacing=6;spacingTop=-4;labelBackgroundColor=none;rounded=0;" parent="WIyWlLk6GJQsqaUBKTNV-1" vertex="1">
          <mxGeometry x="630" y="265" width="120" height="80" as="geometry" />
        </mxCell>
        <mxCell id="yXGT23yazqKVYROXxRZH-18" value="" style="endArrow=classic;html=1;rounded=0;exitX=0.5;exitY=0;exitDx=0;exitDy=0;entryX=1;entryY=0.5;entryDx=0;entryDy=0;" parent="WIyWlLk6GJQsqaUBKTNV-1" source="yXGT23yazqKVYROXxRZH-6" target="yXGT23yazqKVYROXxRZH-12" edge="1">
          <mxGeometry width="50" height="50" relative="1" as="geometry">
            <mxPoint x="440" y="270" as="sourcePoint" />
            <mxPoint x="450" y="220" as="targetPoint" />
            <Array as="points">
              <mxPoint x="510" y="180" />
            </Array>
          </mxGeometry>
        </mxCell>
        <mxCell id="yXGT23yazqKVYROXxRZH-20" value="No" style="text;html=1;strokeColor=none;fillColor=none;align=center;verticalAlign=middle;whiteSpace=wrap;rounded=0;" parent="WIyWlLk6GJQsqaUBKTNV-1" vertex="1">
          <mxGeometry x="490" y="210" width="60" height="30" as="geometry" />
        </mxCell>
        <mxCell id="yXGT23yazqKVYROXxRZH-21" value="Yes" style="text;html=1;strokeColor=none;fillColor=none;align=center;verticalAlign=middle;whiteSpace=wrap;rounded=0;" parent="WIyWlLk6GJQsqaUBKTNV-1" vertex="1">
          <mxGeometry x="560" y="300" width="60" height="30" as="geometry" />
        </mxCell>
        <mxCell id="yXGT23yazqKVYROXxRZH-22" value="입문 와인 출력" style="shape=document;whiteSpace=wrap;html=1;boundedLbl=1;strokeColor=#BAC8D3;fontColor=#EEEEEE;fillColor=#09555B;" parent="WIyWlLk6GJQsqaUBKTNV-1" vertex="1">
          <mxGeometry x="190" y="410" width="120" height="60" as="geometry" />
        </mxCell>
        <mxCell id="yXGT23yazqKVYROXxRZH-23" value="음식별 와인 출력" style="shape=document;whiteSpace=wrap;html=1;boundedLbl=1;strokeColor=#BAC8D3;fontColor=#EEEEEE;fillColor=#09555B;" parent="WIyWlLk6GJQsqaUBKTNV-1" vertex="1">
          <mxGeometry x="353.5" y="410" width="120" height="60" as="geometry" />
        </mxCell>
        <mxCell id="yXGT23yazqKVYROXxRZH-24" value="국가별 와인 출력" style="shape=document;whiteSpace=wrap;html=1;boundedLbl=1;strokeColor=#BAC8D3;fontColor=#EEEEEE;fillColor=#09555B;" parent="WIyWlLk6GJQsqaUBKTNV-1" vertex="1">
          <mxGeometry x="510" y="410" width="120" height="60" as="geometry" />
        </mxCell>
        <mxCell id="yXGT23yazqKVYROXxRZH-25" value="가격별 와인 출력" style="shape=document;whiteSpace=wrap;html=1;boundedLbl=1;strokeColor=#BAC8D3;fontColor=#EEEEEE;fillColor=#09555B;" parent="WIyWlLk6GJQsqaUBKTNV-1" vertex="1">
          <mxGeometry x="670" y="410" width="120" height="60" as="geometry" />
        </mxCell>
        <mxCell id="j07MkLIGBB6SY7WjXgDA-0" value="" style="endArrow=classic;html=1;rounded=0;exitX=0.5;exitY=1;exitDx=0;exitDy=0;entryX=0.5;entryY=0;entryDx=0;entryDy=0;" parent="WIyWlLk6GJQsqaUBKTNV-1" source="WIyWlLk6GJQsqaUBKTNV-6" target="yXGT23yazqKVYROXxRZH-1" edge="1">
          <mxGeometry width="50" height="50" relative="1" as="geometry">
            <mxPoint x="390" y="510" as="sourcePoint" />
            <mxPoint x="330" y="450" as="targetPoint" />
            <Array as="points">
              <mxPoint x="330" y="370" />
              <mxPoint x="-70" y="370" />
            </Array>
          </mxGeometry>
        </mxCell>
        <mxCell id="j07MkLIGBB6SY7WjXgDA-1" value="" style="endArrow=classic;html=1;rounded=0;" parent="WIyWlLk6GJQsqaUBKTNV-1" target="yXGT23yazqKVYROXxRZH-22" edge="1">
          <mxGeometry width="50" height="50" relative="1" as="geometry">
            <mxPoint x="250" y="370" as="sourcePoint" />
            <mxPoint x="440" y="460" as="targetPoint" />
          </mxGeometry>
        </mxCell>
        <mxCell id="j07MkLIGBB6SY7WjXgDA-2" value="" style="endArrow=classic;html=1;rounded=0;entryX=0.5;entryY=0;entryDx=0;entryDy=0;" parent="WIyWlLk6GJQsqaUBKTNV-1" target="yXGT23yazqKVYROXxRZH-25" edge="1">
          <mxGeometry width="50" height="50" relative="1" as="geometry">
            <mxPoint x="330" y="370" as="sourcePoint" />
            <mxPoint x="440" y="460" as="targetPoint" />
            <Array as="points">
              <mxPoint x="730" y="370" />
            </Array>
          </mxGeometry>
        </mxCell>
        <mxCell id="j07MkLIGBB6SY7WjXgDA-3" value="" style="endArrow=classic;html=1;rounded=0;entryX=0.471;entryY=0.022;entryDx=0;entryDy=0;entryPerimeter=0;" parent="WIyWlLk6GJQsqaUBKTNV-1" target="yXGT23yazqKVYROXxRZH-23" edge="1">
          <mxGeometry width="50" height="50" relative="1" as="geometry">
            <mxPoint x="410" y="370" as="sourcePoint" />
            <mxPoint x="440" y="460" as="targetPoint" />
          </mxGeometry>
        </mxCell>
        <mxCell id="j07MkLIGBB6SY7WjXgDA-4" value="" style="endArrow=classic;html=1;rounded=0;entryX=0.5;entryY=0;entryDx=0;entryDy=0;" parent="WIyWlLk6GJQsqaUBKTNV-1" target="yXGT23yazqKVYROXxRZH-24" edge="1">
          <mxGeometry width="50" height="50" relative="1" as="geometry">
            <mxPoint x="570" y="370" as="sourcePoint" />
            <mxPoint x="490" y="410" as="targetPoint" />
          </mxGeometry>
        </mxCell>
        <mxCell id="j07MkLIGBB6SY7WjXgDA-5" value="더보기&lt;br&gt;(Y/N)" style="rhombus;whiteSpace=wrap;html=1;shadow=0;fontFamily=Helvetica;fontSize=12;align=center;strokeWidth=1;spacing=6;spacingTop=-4;labelBackgroundColor=none;rounded=0;fillColor=#09555B;strokeColor=#BAC8D3;fontColor=#EEEEEE;" parent="WIyWlLk6GJQsqaUBKTNV-1" vertex="1">
          <mxGeometry x="-120" y="520" width="100" height="70" as="geometry" />
        </mxCell>
        <mxCell id="j07MkLIGBB6SY7WjXgDA-8" value="" style="endArrow=classic;html=1;rounded=0;exitX=0;exitY=0.5;exitDx=0;exitDy=0;entryX=0;entryY=0.5;entryDx=0;entryDy=0;" parent="WIyWlLk6GJQsqaUBKTNV-1" source="j07MkLIGBB6SY7WjXgDA-5" target="yXGT23yazqKVYROXxRZH-1" edge="1">
          <mxGeometry width="50" height="50" relative="1" as="geometry">
            <mxPoint x="-210" y="570" as="sourcePoint" />
            <mxPoint x="-160" y="520" as="targetPoint" />
            <Array as="points">
              <mxPoint x="-180" y="555" />
              <mxPoint x="-180" y="440" />
            </Array>
          </mxGeometry>
        </mxCell>
        <mxCell id="j07MkLIGBB6SY7WjXgDA-9" value="No" style="text;html=1;strokeColor=none;fillColor=none;align=center;verticalAlign=middle;whiteSpace=wrap;rounded=0;" parent="WIyWlLk6GJQsqaUBKTNV-1" vertex="1">
          <mxGeometry x="-220" y="480" width="60" height="40" as="geometry" />
        </mxCell>
        <mxCell id="j07MkLIGBB6SY7WjXgDA-10" value="Yes" style="text;html=1;strokeColor=none;fillColor=none;align=center;verticalAlign=middle;whiteSpace=wrap;rounded=0;" parent="WIyWlLk6GJQsqaUBKTNV-1" vertex="1">
          <mxGeometry x="-120" y="480" width="60" height="30" as="geometry" />
        </mxCell>
        <mxCell id="j07MkLIGBB6SY7WjXgDA-11" value="" style="edgeStyle=orthogonalEdgeStyle;rounded=0;orthogonalLoop=1;jettySize=auto;html=1;" parent="WIyWlLk6GJQsqaUBKTNV-1" source="j07MkLIGBB6SY7WjXgDA-12" target="j07MkLIGBB6SY7WjXgDA-19" edge="1">
          <mxGeometry relative="1" as="geometry" />
        </mxCell>
        <mxCell id="j07MkLIGBB6SY7WjXgDA-42" value="" style="edgeStyle=orthogonalEdgeStyle;rounded=0;orthogonalLoop=1;jettySize=auto;html=1;" parent="WIyWlLk6GJQsqaUBKTNV-1" source="j07MkLIGBB6SY7WjXgDA-12" target="j07MkLIGBB6SY7WjXgDA-41" edge="1">
          <mxGeometry relative="1" as="geometry" />
        </mxCell>
        <mxCell id="j07MkLIGBB6SY7WjXgDA-12" value="로그인&lt;br&gt;(userId 받음)" style="rhombus;whiteSpace=wrap;html=1;shadow=0;fontFamily=Helvetica;fontSize=12;align=center;strokeWidth=1;spacing=6;spacingTop=-4;labelBackgroundColor=none;rounded=0;" parent="WIyWlLk6GJQsqaUBKTNV-1" vertex="1">
          <mxGeometry x="300" y="1965" width="120" height="70" as="geometry" />
        </mxCell>
        <mxCell id="j07MkLIGBB6SY7WjXgDA-13" value="" style="edgeStyle=orthogonalEdgeStyle;rounded=0;orthogonalLoop=1;jettySize=auto;html=1;" parent="WIyWlLk6GJQsqaUBKTNV-1" source="j07MkLIGBB6SY7WjXgDA-14" target="j07MkLIGBB6SY7WjXgDA-23" edge="1">
          <mxGeometry relative="1" as="geometry" />
        </mxCell>
        <mxCell id="j07MkLIGBB6SY7WjXgDA-14" value="시작&lt;br&gt;(메인페이지)" style="strokeWidth=2;html=1;shape=mxgraph.flowchart.terminator;whiteSpace=wrap;" parent="WIyWlLk6GJQsqaUBKTNV-1" vertex="1">
          <mxGeometry x="-70" y="1975" width="140" height="50" as="geometry" />
        </mxCell>
        <mxCell id="j07MkLIGBB6SY7WjXgDA-15" value="출력" style="shape=document;whiteSpace=wrap;html=1;boundedLbl=1;strokeColor=default;fillColor=#a20025;fontColor=#ffffff;" parent="WIyWlLk6GJQsqaUBKTNV-1" vertex="1">
          <mxGeometry x="640" y="1180" width="120" height="60" as="geometry" />
        </mxCell>
        <mxCell id="j07MkLIGBB6SY7WjXgDA-18" value="" style="edgeStyle=orthogonalEdgeStyle;rounded=0;orthogonalLoop=1;jettySize=auto;html=1;" parent="WIyWlLk6GJQsqaUBKTNV-1" source="j07MkLIGBB6SY7WjXgDA-19" target="j07MkLIGBB6SY7WjXgDA-24" edge="1">
          <mxGeometry relative="1" as="geometry" />
        </mxCell>
        <mxCell id="j07MkLIGBB6SY7WjXgDA-19" value="&lt;p style=&quot;line-height: 100%;&quot;&gt;&lt;font style=&quot;font-size: 12px;&quot;&gt;카테고리&lt;br&gt;와인 선택&lt;br&gt;( Y / N )&lt;/font&gt;&lt;/p&gt;" style="rhombus;whiteSpace=wrap;html=1;shadow=0;fontFamily=Helvetica;fontSize=12;align=center;strokeWidth=1;spacing=6;spacingTop=-4;labelBackgroundColor=none;rounded=0;" parent="WIyWlLk6GJQsqaUBKTNV-1" vertex="1">
          <mxGeometry x="300" y="1840" width="120" height="70" as="geometry" />
        </mxCell>
        <mxCell id="j07MkLIGBB6SY7WjXgDA-22" value="" style="edgeStyle=orthogonalEdgeStyle;rounded=0;orthogonalLoop=1;jettySize=auto;html=1;" parent="WIyWlLk6GJQsqaUBKTNV-1" source="j07MkLIGBB6SY7WjXgDA-23" target="j07MkLIGBB6SY7WjXgDA-12" edge="1">
          <mxGeometry relative="1" as="geometry" />
        </mxCell>
        <mxCell id="j07MkLIGBB6SY7WjXgDA-23" value="메인화면&lt;br&gt;출력" style="shape=document;whiteSpace=wrap;html=1;boundedLbl=1;" parent="WIyWlLk6GJQsqaUBKTNV-1" vertex="1">
          <mxGeometry x="130" y="1970" width="120" height="60" as="geometry" />
        </mxCell>
        <mxCell id="j07MkLIGBB6SY7WjXgDA-24" value="&lt;p style=&quot;line-height: 100%; font-size: 11px;&quot;&gt;카테고리별&lt;br&gt;와인 출력&lt;br&gt;( ex )category_id = 1)&lt;br&gt;&lt;/p&gt;" style="shape=document;whiteSpace=wrap;html=1;boundedLbl=1;shadow=0;strokeWidth=1;spacing=6;spacingTop=-4;labelBackgroundColor=none;rounded=0;" parent="WIyWlLk6GJQsqaUBKTNV-1" vertex="1">
          <mxGeometry x="300" y="1700" width="120" height="80" as="geometry" />
        </mxCell>
        <mxCell id="j07MkLIGBB6SY7WjXgDA-25" value="" style="endArrow=classic;html=1;rounded=0;exitX=0;exitY=0.5;exitDx=0;exitDy=0;" parent="WIyWlLk6GJQsqaUBKTNV-1" source="j07MkLIGBB6SY7WjXgDA-19" target="j07MkLIGBB6SY7WjXgDA-23" edge="1">
          <mxGeometry width="50" height="50" relative="1" as="geometry">
            <mxPoint x="600" y="1420" as="sourcePoint" />
            <mxPoint x="610" y="1370" as="targetPoint" />
            <Array as="points">
              <mxPoint x="190" y="1875" />
            </Array>
          </mxGeometry>
        </mxCell>
        <mxCell id="j07MkLIGBB6SY7WjXgDA-26" value="&lt;font color=&quot;#000000&quot;&gt;No&lt;/font&gt;" style="text;html=1;align=center;verticalAlign=middle;whiteSpace=wrap;rounded=0;" parent="WIyWlLk6GJQsqaUBKTNV-1" vertex="1">
          <mxGeometry x="310" y="1930" width="60" height="30" as="geometry" />
        </mxCell>
        <mxCell id="j07MkLIGBB6SY7WjXgDA-27" value="Yes" style="text;html=1;align=center;verticalAlign=middle;whiteSpace=wrap;rounded=0;" parent="WIyWlLk6GJQsqaUBKTNV-1" vertex="1">
          <mxGeometry x="783.5" y="2005" width="60" height="30" as="geometry" />
        </mxCell>
        <mxCell id="j07MkLIGBB6SY7WjXgDA-44" value="" style="edgeStyle=orthogonalEdgeStyle;rounded=0;orthogonalLoop=1;jettySize=auto;html=1;" parent="WIyWlLk6GJQsqaUBKTNV-1" source="j07MkLIGBB6SY7WjXgDA-41" target="j07MkLIGBB6SY7WjXgDA-43" edge="1">
          <mxGeometry relative="1" as="geometry" />
        </mxCell>
        <mxCell id="j07MkLIGBB6SY7WjXgDA-41" value="카테고리별,&lt;br&gt;입문추천,음식별,국가별,가격별 추천와인 출력" style="shape=document;whiteSpace=wrap;html=1;boundedLbl=1;shadow=0;strokeWidth=1;spacing=6;spacingTop=-4;labelBackgroundColor=none;rounded=0;" parent="WIyWlLk6GJQsqaUBKTNV-1" vertex="1">
          <mxGeometry x="473.5" y="1960" width="140" height="80" as="geometry" />
        </mxCell>
        <mxCell id="j07MkLIGBB6SY7WjXgDA-46" value="" style="edgeStyle=orthogonalEdgeStyle;rounded=0;orthogonalLoop=1;jettySize=auto;html=1;" parent="WIyWlLk6GJQsqaUBKTNV-1" source="j07MkLIGBB6SY7WjXgDA-43" target="j07MkLIGBB6SY7WjXgDA-45" edge="1">
          <mxGeometry relative="1" as="geometry" />
        </mxCell>
        <mxCell id="j07MkLIGBB6SY7WjXgDA-43" value="더보기&lt;br&gt;( Y / N )" style="rhombus;whiteSpace=wrap;html=1;shadow=0;fontFamily=Helvetica;fontSize=12;align=center;strokeWidth=1;spacing=6;spacingTop=-4;labelBackgroundColor=none;rounded=0;" parent="WIyWlLk6GJQsqaUBKTNV-1" vertex="1">
          <mxGeometry x="673.5" y="1965" width="120" height="70" as="geometry" />
        </mxCell>
        <mxCell id="j07MkLIGBB6SY7WjXgDA-65" value="" style="edgeStyle=orthogonalEdgeStyle;rounded=0;orthogonalLoop=1;jettySize=auto;html=1;" parent="WIyWlLk6GJQsqaUBKTNV-1" source="j07MkLIGBB6SY7WjXgDA-45" target="j07MkLIGBB6SY7WjXgDA-64" edge="1">
          <mxGeometry relative="1" as="geometry" />
        </mxCell>
        <mxCell id="j07MkLIGBB6SY7WjXgDA-45" value="각 항목별&lt;br&gt;전체 와인리스트&amp;nbsp;&lt;br&gt;출력" style="shape=document;whiteSpace=wrap;html=1;boundedLbl=1;shadow=0;strokeWidth=1;spacing=6;spacingTop=-4;labelBackgroundColor=none;rounded=0;" parent="WIyWlLk6GJQsqaUBKTNV-1" vertex="1">
          <mxGeometry x="843.5" y="1960" width="120" height="80" as="geometry" />
        </mxCell>
        <mxCell id="j07MkLIGBB6SY7WjXgDA-47" value="" style="endArrow=classic;html=1;rounded=0;exitX=0.5;exitY=1;exitDx=0;exitDy=0;" parent="WIyWlLk6GJQsqaUBKTNV-1" source="j07MkLIGBB6SY7WjXgDA-43" target="j07MkLIGBB6SY7WjXgDA-41" edge="1">
          <mxGeometry width="50" height="50" relative="1" as="geometry">
            <mxPoint x="523.5" y="1750" as="sourcePoint" />
            <mxPoint x="573.5" y="1700" as="targetPoint" />
            <Array as="points">
              <mxPoint x="734" y="2080" />
              <mxPoint x="544" y="2080" />
            </Array>
          </mxGeometry>
        </mxCell>
        <mxCell id="j07MkLIGBB6SY7WjXgDA-53" value="Yes" style="text;html=1;align=center;verticalAlign=middle;whiteSpace=wrap;rounded=0;" parent="WIyWlLk6GJQsqaUBKTNV-1" vertex="1">
          <mxGeometry x="414" y="2000" width="60" height="30" as="geometry" />
        </mxCell>
        <mxCell id="j07MkLIGBB6SY7WjXgDA-54" value="&lt;font color=&quot;#000000&quot;&gt;No&lt;/font&gt;" style="text;html=1;align=center;verticalAlign=middle;whiteSpace=wrap;rounded=0;" parent="WIyWlLk6GJQsqaUBKTNV-1" vertex="1">
          <mxGeometry x="190" y="1850" width="60" height="30" as="geometry" />
        </mxCell>
        <mxCell id="j07MkLIGBB6SY7WjXgDA-55" value="&lt;font color=&quot;#000000&quot;&gt;No&lt;/font&gt;" style="text;html=1;align=center;verticalAlign=middle;whiteSpace=wrap;rounded=0;" parent="WIyWlLk6GJQsqaUBKTNV-1" vertex="1">
          <mxGeometry x="610" y="2076" width="60" height="30" as="geometry" />
        </mxCell>
        <mxCell id="j07MkLIGBB6SY7WjXgDA-56" value="Yes" style="text;html=1;align=center;verticalAlign=middle;whiteSpace=wrap;rounded=0;" parent="WIyWlLk6GJQsqaUBKTNV-1" vertex="1">
          <mxGeometry x="310" y="1800" width="60" height="30" as="geometry" />
        </mxCell>
        <mxCell id="Yk4OX9eRTrmea5lvyi48-2" value="" style="edgeStyle=orthogonalEdgeStyle;rounded=0;orthogonalLoop=1;jettySize=auto;html=1;" parent="WIyWlLk6GJQsqaUBKTNV-1" source="j07MkLIGBB6SY7WjXgDA-64" target="Yk4OX9eRTrmea5lvyi48-1" edge="1">
          <mxGeometry relative="1" as="geometry" />
        </mxCell>
        <mxCell id="j07MkLIGBB6SY7WjXgDA-64" value="최신등록순,&amp;nbsp;&lt;br style=&quot;border-color: var(--border-color);&quot;&gt;높은금액순,&lt;br style=&quot;border-color: var(--border-color);&quot;&gt;낮은금액순별&lt;br style=&quot;border-color: var(--border-color);&quot;&gt;출력" style="shape=document;whiteSpace=wrap;html=1;boundedLbl=1;shadow=0;strokeWidth=1;spacing=6;spacingTop=-4;labelBackgroundColor=none;rounded=0;" parent="WIyWlLk6GJQsqaUBKTNV-1" vertex="1">
          <mxGeometry x="1043.5" y="1955" width="120" height="90" as="geometry" />
        </mxCell>
        <mxCell id="Yk4OX9eRTrmea5lvyi48-1" value="와인 상세페이지" style="strokeWidth=2;html=1;shape=mxgraph.flowchart.terminator;whiteSpace=wrap;" parent="WIyWlLk6GJQsqaUBKTNV-1" vertex="1">
          <mxGeometry x="1241" y="1975" width="140" height="50" as="geometry" />
        </mxCell>
        <mxCell id="KbQDG5JPkuKvZqQANcQg-0" value="" style="edgeStyle=orthogonalEdgeStyle;rounded=0;orthogonalLoop=1;jettySize=auto;html=1;exitX=0.454;exitY=0.933;exitDx=0;exitDy=0;exitPerimeter=0;entryX=0;entryY=0.5;entryDx=0;entryDy=0;" edge="1" parent="WIyWlLk6GJQsqaUBKTNV-1" source="j07MkLIGBB6SY7WjXgDA-23" target="KbQDG5JPkuKvZqQANcQg-1">
          <mxGeometry relative="1" as="geometry">
            <mxPoint x="180" y="2100" as="sourcePoint" />
            <mxPoint x="184" y="2140" as="targetPoint" />
            <Array as="points">
              <mxPoint x="185" y="2070" />
              <mxPoint x="184" y="2210" />
            </Array>
          </mxGeometry>
        </mxCell>
        <mxCell id="KbQDG5JPkuKvZqQANcQg-3" value="" style="edgeStyle=orthogonalEdgeStyle;rounded=0;orthogonalLoop=1;jettySize=auto;html=1;" edge="1" parent="WIyWlLk6GJQsqaUBKTNV-1" source="KbQDG5JPkuKvZqQANcQg-1" target="KbQDG5JPkuKvZqQANcQg-2">
          <mxGeometry relative="1" as="geometry" />
        </mxCell>
        <mxCell id="KbQDG5JPkuKvZqQANcQg-1" value="검색" style="rounded=0;whiteSpace=wrap;html=1;" vertex="1" parent="WIyWlLk6GJQsqaUBKTNV-1">
          <mxGeometry x="327" y="2140" width="110" height="60" as="geometry" />
        </mxCell>
        <mxCell id="KbQDG5JPkuKvZqQANcQg-5" value="" style="edgeStyle=orthogonalEdgeStyle;rounded=0;orthogonalLoop=1;jettySize=auto;html=1;" edge="1" parent="WIyWlLk6GJQsqaUBKTNV-1" source="KbQDG5JPkuKvZqQANcQg-2" target="KbQDG5JPkuKvZqQANcQg-4">
          <mxGeometry relative="1" as="geometry" />
        </mxCell>
        <mxCell id="KbQDG5JPkuKvZqQANcQg-2" value="category_id,&lt;br&gt;country_id,&lt;br&gt;big_category_id,&amp;nbsp;&lt;br&gt;text값 입력" style="shape=parallelogram;perimeter=parallelogramPerimeter;whiteSpace=wrap;html=1;fixedSize=1;" vertex="1" parent="WIyWlLk6GJQsqaUBKTNV-1">
          <mxGeometry x="645" y="2140" width="120" height="60" as="geometry" />
        </mxCell>
        <mxCell id="KbQDG5JPkuKvZqQANcQg-4" value="검색한 와인리스트&amp;nbsp;&lt;br&gt;출력" style="shape=document;whiteSpace=wrap;html=1;boundedLbl=1;shadow=0;strokeWidth=1;spacing=6;spacingTop=-4;labelBackgroundColor=none;rounded=0;" vertex="1" parent="WIyWlLk6GJQsqaUBKTNV-1">
          <mxGeometry x="953" y="2130" width="120" height="80" as="geometry" />
        </mxCell>
        <mxCell id="KbQDG5JPkuKvZqQANcQg-6" value="" style="edgeStyle=orthogonalEdgeStyle;rounded=0;orthogonalLoop=1;jettySize=auto;html=1;entryX=0.5;entryY=1;entryDx=0;entryDy=0;entryPerimeter=0;exitX=1;exitY=0.5;exitDx=0;exitDy=0;" edge="1" parent="WIyWlLk6GJQsqaUBKTNV-1" source="KbQDG5JPkuKvZqQANcQg-4" target="Yk4OX9eRTrmea5lvyi48-1">
          <mxGeometry relative="1" as="geometry">
            <mxPoint x="810" y="2209.8" as="sourcePoint" />
            <mxPoint x="890" y="2209.8" as="targetPoint" />
          </mxGeometry>
        </mxCell>
        <mxCell id="KbQDG5JPkuKvZqQANcQg-8" value="" style="edgeStyle=orthogonalEdgeStyle;rounded=0;orthogonalLoop=1;jettySize=auto;html=1;exitX=0.454;exitY=0.933;exitDx=0;exitDy=0;exitPerimeter=0;entryX=0;entryY=0.5;entryDx=0;entryDy=0;" edge="1" parent="WIyWlLk6GJQsqaUBKTNV-1">
          <mxGeometry relative="1" as="geometry">
            <mxPoint x="183.98" y="2170" as="sourcePoint" />
            <mxPoint x="326.98" y="2314" as="targetPoint" />
            <Array as="points">
              <mxPoint x="184.98" y="2214" />
              <mxPoint x="183.98" y="2354" />
            </Array>
          </mxGeometry>
        </mxCell>
        <mxCell id="KbQDG5JPkuKvZqQANcQg-12" value="" style="edgeStyle=orthogonalEdgeStyle;rounded=0;orthogonalLoop=1;jettySize=auto;html=1;" edge="1" parent="WIyWlLk6GJQsqaUBKTNV-1" source="KbQDG5JPkuKvZqQANcQg-9" target="KbQDG5JPkuKvZqQANcQg-11">
          <mxGeometry relative="1" as="geometry" />
        </mxCell>
        <mxCell id="KbQDG5JPkuKvZqQANcQg-9" value="이달의 할인 와인&lt;br&gt;베너 선택" style="rounded=0;whiteSpace=wrap;html=1;" vertex="1" parent="WIyWlLk6GJQsqaUBKTNV-1">
          <mxGeometry x="327" y="2280" width="110" height="60" as="geometry" />
        </mxCell>
        <mxCell id="KbQDG5JPkuKvZqQANcQg-13" value="" style="edgeStyle=orthogonalEdgeStyle;rounded=0;orthogonalLoop=1;jettySize=auto;html=1;" edge="1" parent="WIyWlLk6GJQsqaUBKTNV-1" source="KbQDG5JPkuKvZqQANcQg-11">
          <mxGeometry relative="1" as="geometry">
            <mxPoint x="953" y="2310" as="targetPoint" />
          </mxGeometry>
        </mxCell>
        <mxCell id="KbQDG5JPkuKvZqQANcQg-11" value="현재 년, 월에 해당하는 sale_yn = 1인 와인 검색" style="rounded=0;whiteSpace=wrap;html=1;" vertex="1" parent="WIyWlLk6GJQsqaUBKTNV-1">
          <mxGeometry x="650" y="2280" width="110" height="60" as="geometry" />
        </mxCell>
        <mxCell id="KbQDG5JPkuKvZqQANcQg-14" value="" style="edgeStyle=orthogonalEdgeStyle;rounded=0;orthogonalLoop=1;jettySize=auto;html=1;exitX=1;exitY=0.5;exitDx=0;exitDy=0;" edge="1" parent="WIyWlLk6GJQsqaUBKTNV-1" target="Yk4OX9eRTrmea5lvyi48-1">
          <mxGeometry relative="1" as="geometry">
            <mxPoint x="1073" y="2310" as="sourcePoint" />
            <mxPoint x="1311" y="2170" as="targetPoint" />
          </mxGeometry>
        </mxCell>
        <mxCell id="KbQDG5JPkuKvZqQANcQg-16" value="검색한 와인리스트&amp;nbsp;&lt;br&gt;출력" style="shape=document;whiteSpace=wrap;html=1;boundedLbl=1;shadow=0;strokeWidth=1;spacing=6;spacingTop=-4;labelBackgroundColor=none;rounded=0;" vertex="1" parent="WIyWlLk6GJQsqaUBKTNV-1">
          <mxGeometry x="953" y="2270" width="120" height="80" as="geometry" />
        </mxCell>
      </root>
    </mxGraphModel>
  </diagram>
</mxfile>
